<?xml version="1.0" encoding="UTF-8" standalone="no"?>
<!DOCTYPE svg PUBLIC "-//W3C//DTD SVG 1.1//EN" "http://www.w3.org/Graphics/SVG/1.1/DTD/svg11.dtd">
<svg width="100%" height="100%" viewBox="0 0 10800 7200" version="1.1" xmlns="http://www.w3.org/2000/svg" xmlns:xlink="http://www.w3.org/1999/xlink" xml:space="preserve" xmlns:serif="http://www.serif.com/" style="fill-rule:evenodd;clip-rule:evenodd;stroke-linejoin:round;stroke-miterlimit:2;">
    <g id="Logo-N-Black" serif:id="Logo N Black" transform="matrix(1.065372,0,0,1.065372,-353.006901,-235.337934)">
        <g transform="matrix(27.107266,0,0,27.107266,-2310.596466,-4096.756456)">
            <path d="M221.51,292.043C216.253,291.204 216.594,289.572 216.737,280.507C216.839,274.014 222.397,275.948 230.517,275.72C233.731,275.63 232.245,273.872 232.737,263.515C232.958,258.865 237.252,259.371 244.5,259.51C250.884,259.632 248.885,265.455 249.133,273.528C249.246,277.204 251.226,275.374 260.496,275.678C265.176,275.831 265.557,277.941 265.207,287.496C264.935,294.908 253.93,291.18 250.398,292.159C248.622,292.651 249.212,296.329 249.137,303.502C249.076,309.35 244.651,308.414 238.501,308.372C231.356,308.322 232.762,304.474 232.701,294.5C232.682,291.417 230.704,292.079 221.51,292.043Z" style="fill:url(#_Linear1);"/>
        </g>
        <path d="M3561.826,5235.363C3580.708,5133.342 3581.851,5134.387 3583.294,5125.553C3595.285,5052.125 3550.309,5059.601 3338.004,5081.396C3257.849,5089.624 3260.926,5104.879 3229.92,5180.186C3195.408,5264.012 3037.087,5407.714 2848.643,5342.527C2495.441,5220.347 2595.573,4660.552 3014.293,4732.503C3089.059,4745.35 3086.041,4719.034 3245.572,4521.06C3365.167,4372.645 3360.775,4358.23 3355.874,4342.146C3345.517,4308.159 2734.366,3951.616 2662.367,3900.41C2554.441,3823.65 2542.387,3857.927 2466.692,3900.406C2385.91,3945.739 2252.396,3939.828 2173.722,3899.989C1843.844,3732.945 1945.567,3309.685 2222.739,3244.22C2459.406,3188.321 2510.635,3348.322 2608.57,3288.593C2705.277,3229.613 2973.838,3082.678 2989.149,3073.153C3155.045,2969.951 3183.02,2979.879 3172.868,2929.935C3168.284,2907.382 3163.818,2909.947 2984.555,2712.464C2863.963,2579.615 2859.922,2561.058 2768.048,2579.787C2529.167,2628.484 2409.66,2443.924 2386.791,2360.58C2280.339,1972.623 2787.973,1800.29 2958.479,2088.378C2987.13,2136.787 2985.802,2137.309 2988.377,2141.445C3023.461,2197.797 3043.339,2189.721 3309.548,2189.204C4014.715,2187.836 4020.913,2197.19 4044.627,2173.459C4073.008,2145.059 4103.485,1898.234 4106.483,1873.952C4144.625,1565.052 4169.924,1543.211 4102.585,1507.684C4078.762,1495.115 3930.007,1416.633 3864.294,1269.815C3668.75,832.92 4162.321,470.975 4480.358,642.499C4800.462,815.138 4689.856,981.505 4800.901,1002.524C4844.363,1010.751 5969.555,1062.654 6155.689,1068.213C6377.128,1074.828 6407.125,1103.65 6451.715,1003.697C6537.553,811.277 6817.313,768.568 6962.369,878.369C7180.012,1043.115 7082.203,1254.307 7108.865,1300.362C7130.357,1337.488 7594.604,1663.717 7637.76,1694.043C7921.791,1893.633 7929.823,1939.309 8007.727,1884.445C8295.211,1681.987 8604.818,1757.609 8777.532,2039.417C8857.857,2170.479 8833.517,2376.948 8810.679,2441.059C8700.914,2749.185 8433.508,2787.33 8405.944,2794.498C8353.542,2808.125 8338.811,2855.375 8309.272,2933.964C8147.536,3364.265 8137.869,3359.687 8064.356,3556.82C7868.359,4082.405 7857.24,4077.857 7841.992,4124.16C7805.764,4234.175 7774.615,4257.99 7821.552,4331.601C8032.722,4662.78 7840.896,4994.929 7592.266,5097.363C7274.928,5228.106 7067.833,4991.759 7023.546,4993.396C6990.527,4994.616 6694.809,5222.508 6610.184,5277.915C6538.809,5324.646 6550.455,5337.905 6558.142,5423.684C6582.388,5694.26 6369.118,5811.193 6263.415,5820.556C6088.673,5836.033 6035.151,5768.249 5992.652,5749.809C5918.766,5717.75 5894.161,5777.459 5185.586,6217.995C5094.492,6274.631 5124.063,6329.247 5117.946,6371.112C5072.564,6681.73 4578.526,6682.053 4568.381,6344.74C4560.519,6083.332 4765.904,6099.196 4781.117,6021.974C4795.511,5948.912 4818.674,5471.194 4820.999,5423.246C4824.846,5343.889 4793.418,5356.341 4663.954,5289.743C4567.908,5240.335 3973.896,5809.641 3928.314,5851.494C3839.435,5933.104 3801.05,5928.97 3829.209,6045.779C3879.234,6253.3 3744.125,6391.079 3708.981,6416.583C3395.647,6643.97 3065.716,6342.535 3150.647,6047.733C3214.908,5824.679 3432.571,5794.252 3438.186,5790.492C3488.607,5756.719 3504.156,5516.309 3561.826,5235.363ZM6869.915,1978.413C6850.308,1894.736 6816.041,1737.948 6807.774,1709.237C6769.84,1577.507 6780.523,1545.177 6723.007,1528.669C6627.316,1501.205 6618.941,1518.061 6566.151,1603.397C6441.066,1805.601 6435.426,1801.236 6309.552,2003.361C6262.105,2079.55 6425.305,2137.762 6437.836,2386.861C6448.211,2593.104 6328.416,2613.719 6417.995,2745.804C6801.906,3311.886 7294.127,4084.409 7321.757,4094.537C7408.772,4126.433 7385.119,4057.103 7629.703,3448.797C7654.338,3387.528 7891.901,2796.682 7932.795,2681.004C7972.906,2567.537 7795.783,2527.8 7825.603,2223.581C7837.541,2101.797 7908.51,2079.333 7813.657,2002.47C7691.749,1903.682 7529.302,1791.824 7503.959,1774.373C7072.286,1477.131 7043.882,1406.279 6976.127,1449.581C6898.944,1498.907 6934.365,1573.736 6947.11,1627.326C7071.775,2151.527 7072.782,2150.854 7082.933,2196.557C7093.658,2244.847 7188.014,2669.68 7229.103,2797.362C7248.631,2858.045 7266.109,2842.884 7324.315,2869.828C7390.015,2900.241 7485.127,3006.303 7448.196,3144.264C7386.053,3376.402 7066.052,3373.52 6997.199,3173.147C6939.903,3006.408 7065.619,2910.319 7072.211,2874.226C7080.722,2827.627 6881.4,2015.881 6869.915,1978.413ZM3645.859,4747.176C3649.93,4720.652 3687.862,4622.479 3626.25,4535.134C3512.499,4373.87 3474.065,4472.388 3459.556,4492.995C3354.861,4641.703 3341.971,4631.031 3237.397,4779.84C3175.731,4867.59 3243.223,4941.65 3309.632,4935.357C3329.187,4933.504 3517.659,4915.642 3553.951,4911.012C3628.377,4901.518 3628.593,4849.359 3645.859,4747.176ZM5832.448,1909.653C5847.262,1908.111 5944.528,1897.985 6018.624,1909.016C6069.505,1916.591 6118.056,1953.212 6160.232,1935.953C6200.282,1919.564 6484.504,1458.766 6488.793,1440.978C6492.541,1425.432 6496.232,1410.124 6417.337,1254.292C6397.196,1214.51 6333.085,1217.892 6156.094,1213.838C5839.626,1206.589 5841.205,1196.052 5586.907,1187.933C5107.071,1172.614 4825.884,1138.358 4770.049,1162.518C4760.947,1166.456 4744.364,1173.632 4720.815,1276.294C4707.748,1333.261 4805.425,1387.55 4993.728,1542.856C5028.219,1571.303 5419.223,1893.789 5425.176,1898.062C5512.147,1960.498 5561.196,2054.072 5635.044,1999.892C5717.274,1939.563 5764.349,1932.003 5832.448,1909.653ZM3653.394,5584.345C3622.698,5737.102 3602.609,5809.491 3659.805,5834.161C3719.106,5859.74 3729.492,5826.552 4020.957,5566.68C4338.415,5283.632 4337.44,5283.307 4365.234,5258.974C4464.704,5171.888 4513.034,5171.201 4462.494,5048.687C4419.673,4944.885 4384.547,4984.642 4177.743,4998.191C4143.816,5000.414 3786.354,5023.834 3756.816,5056.917C3730.267,5086.654 3684.934,5417.366 3653.394,5584.345ZM5588.676,5778.731C5659.897,5728.36 5768.463,5662.952 5784.39,5653.357C5863.755,5605.541 5869.672,5596.772 5858.01,5504.666C5852.722,5462.901 5858.024,5398.87 5844.959,5381.867C5826.752,5358.174 5554.036,5229.288 5528.211,5217.083C5389.577,5151.565 5376.321,5126.561 5319.678,5183.394C5122.799,5380.934 5037.837,5324.124 4992.672,5371.39C4964.72,5400.643 4966.282,5686.271 4943.28,5939.188C4933.706,6044.459 4914.273,6073.188 5015.368,6105.889C5076.368,6125.622 5076.309,6102.015 5588.676,5778.731ZM4248.5,1952.305C4176.094,2375.701 4194.743,2558.157 4068.695,2631.416C3805.77,2784.226 2735.063,3394.645 2708.317,3408.291C2666.404,3429.677 2662.913,3425.328 2654.433,3441.46C2619.656,3507.615 2705.342,3509.75 2712.523,3509.929C2980.824,3516.614 3310.384,3492.531 3359.472,3531.34C3384.606,3551.211 3433.23,3657.172 3282.596,3657.22C2687.77,3657.407 2683.521,3648.811 2662.814,3666.39C2608.362,3712.619 2748.368,3769.548 2907.262,3870.48C3319.69,4132.463 3703.93,4327.443 3771.525,4474.131C3858.336,4662.521 3803.406,4670.673 3781.047,4828.86C3769.335,4911.72 3855.403,4882.189 4042.616,4864.349C4403.786,4829.932 4410.755,4829.62 4423.775,4801.594C4438.816,4769.217 4448.154,4552.342 4696.563,4400.779C4809.285,4332.003 4897.335,4387.692 4938.13,4285.808C4964.931,4218.873 5132.179,3801.174 5269.903,3447.827C5284.37,3410.709 5383.963,3155.194 5458.07,2986.783C5549.177,2779.739 5540.749,2758.606 5533.088,2739.397C5529.497,2730.393 5525.016,2733.131 5471.077,2635.296C5437.387,2574.189 5354.269,2636.964 4908.339,2736.964C4780.313,2765.674 4710.538,2815.608 4676.351,2735.006C4655.582,2686.04 4573.907,2437.133 4565.368,2411.107C4518.502,2268.284 4322.137,2428.029 4334.59,2278.667C4342.918,2178.771 4375.397,2190.021 4475.268,2189.151C4586.796,2188.18 4644.873,2169.241 4672.775,2249.242C4715.064,2370.493 4715.688,2369.595 4755.393,2492.308C4767.115,2528.535 4786.379,2607.224 4852.427,2592.85C4879.039,2587.059 5389.298,2459.397 5392.176,2457.986C5439.177,2434.952 5412.342,2353.717 5450.9,2251.74C5454.054,2243.398 5483.573,2165.33 5477.776,2143.55C5468.018,2106.885 5120.609,1852.39 4859.981,1622.256C4638.271,1426.486 4610.459,1435.002 4585.359,1442.686C4555.658,1451.78 4502.615,1511.44 4395.894,1529.273C4328.784,1540.487 4308.691,1530.825 4299.8,1598.777C4276.609,1776.017 4274.204,1774.988 4248.5,1952.305ZM6513.833,5159.71C6608.247,5088.342 6914.355,4886.699 6922.621,4856.643C6931.571,4824.103 6853.351,4629.059 6918.082,4448.598C6946.667,4368.906 6952.077,4362.614 6905.881,4291.136C6834.377,4180.497 6734.516,4039.354 6719.22,4017.734C6712.312,4007.97 6143.235,3151.299 6136.002,3141.345C6043.795,3014.455 5989.175,2859.872 5937.671,2983.097C5887.977,3101.994 5893.032,3103.163 5844.444,3221.83C5751.097,3449.811 5750.551,3449.369 5742.803,3469.322C5625.938,3770.294 5616.693,3765.621 5503.784,4067.449C5346.943,4486.719 5302.666,4493.116 5354.753,4575.475C5471.94,4760.769 5434.784,4808.394 5432.467,4962.606C5431.739,5011.034 5473.816,5031.252 5691.715,5132.303C5851.412,5206.363 5881.767,5268.172 5965.383,5205.565C6081.452,5118.659 6085.249,5121.115 6092.844,5096.566C6102.152,5066.479 6045.973,4564.036 6026.122,4284.525C6020.705,4208.249 6005.97,4212.792 5944.568,4168.643C5793.715,4060.18 5833.649,3835.265 5967.802,3772.964C6164.198,3681.757 6340.302,3847.638 6312.705,4013.061C6288.216,4159.853 6174.401,4154.344 6180.8,4257.945C6182.411,4284.021 6194.954,4487.106 6206.374,4583.509C6263.45,5065.28 6225.823,5096.695 6293.058,5120.657C6428.328,5168.867 6434.731,5217.99 6513.833,5159.71ZM3663.398,2687.886C3699.313,2665.292 3711.211,2659.236 3715.53,2657.038C3732.679,2648.309 3784.064,2622.154 3924.734,2538.342C4045.546,2466.362 4065.452,2341.995 3960.21,2346.422C3799.381,2353.187 3611.247,2343.924 3472.22,2346.236C3049.658,2353.262 3012.999,2314.437 2970.7,2419.081C2959.038,2447.934 2955.02,2458.908 3117.914,2633.142C3281.073,2807.66 3312.411,2884.638 3388.636,2843.932C3528.071,2769.471 3524.925,2765.167 3663.398,2687.886Z" style="fill:url(#_Radial2);"/>
        <g transform="matrix(1.12559,0,0,1.190252,-784.356647,-558.481158)">
            <ellipse cx="5972.004" cy="2497.826" rx="454.176" ry="437.661" style="fill:rgb(21,113,138);"/>
        </g>
        <g transform="matrix(1.12559,0,0,1.190252,681.119232,1651.84403)">
            <ellipse cx="5972.004" cy="2497.826" rx="454.176" ry="437.661" style="fill:rgb(21,113,138);"/>
        </g>
        <g transform="matrix(1.12559,0,0,1.190252,-1786.946637,1886.031436)">
            <ellipse cx="5972.004" cy="2497.826" rx="454.176" ry="437.661" style="fill:rgb(21,113,138);"/>
        </g>
        <g>
            <g transform="matrix(1.12559,0,0,1.190252,-783.207601,-568.816176)">
                <ellipse cx="5972.004" cy="2497.826" rx="454.176" ry="437.661" style="fill:rgb(21,113,138);"/>
            </g>
            <g transform="matrix(1.12559,0,0,1.190252,-1786.946637,1886.031436)">
                <ellipse cx="5972.004" cy="2497.826" rx="454.176" ry="437.661" style="fill:rgb(21,113,138);"/>
            </g>
            <g transform="matrix(1.12559,0,0,1.190252,-783.207601,-568.816176)">
                <ellipse cx="5972.004" cy="2497.826" rx="454.176" ry="437.661" style="fill:rgb(21,113,138);"/>
            </g>
            <path d="M4888.637,4341.146C4888.637,4341.146 4909.081,4343.72 4935.082,4290.045C4962.219,4234.027 5531.181,2801.053 5531.181,2801.053L5537.317,2772.758L5535.613,2743.269L5528.113,2724.69C5679.671,2794.222 5863.348,2880.318 5980.796,2933.537C5980.796,2933.537 5956.808,2937.931 5950.999,2949.117C5948.25,2954.411 5943.24,2965.048 5943.24,2965.048L5930.113,3000.42L5343.244,4469.153L5335.441,4499.843C5335.441,4499.843 5330.239,4532.615 5342.204,4545.619C5354.168,4558.624 5343.764,4573.709 5343.764,4573.709L4877.232,4361.421L4874.413,4350.494L4888.637,4341.146Z" style="fill:rgb(21,113,138);"/>
        </g>
        <g transform="matrix(0.566812,-0.823847,0.823847,0.566812,592.383404,5943.550055)">
            <g transform="matrix(1.12559,0,0,1.190252,-783.207601,-568.816176)">
                <ellipse cx="5972.004" cy="2497.826" rx="454.176" ry="437.661" style="fill:rgb(21,113,138);"/>
            </g>
            <g transform="matrix(1.12559,0,0,1.190252,-1786.946637,1886.031436)">
                <ellipse cx="5972.004" cy="2497.826" rx="454.176" ry="437.661" style="fill:rgb(21,113,138);"/>
            </g>
            <g transform="matrix(1.12559,0,0,1.190252,-783.207601,-568.816176)">
                <ellipse cx="5972.004" cy="2497.826" rx="454.176" ry="437.661" style="fill:rgb(21,113,138);"/>
            </g>
            <path d="M4888.637,4341.146C4888.637,4341.146 4909.081,4343.72 4935.082,4290.045C4962.219,4234.027 5531.181,2801.053 5531.181,2801.053L5537.317,2772.758L5535.613,2743.269L5528.113,2724.69C5679.671,2794.222 5863.348,2880.318 5980.796,2933.537C5980.796,2933.537 5956.808,2937.931 5950.999,2949.117C5948.25,2954.411 5943.24,2965.048 5943.24,2965.048L5930.113,3000.42L5343.244,4469.153L5335.441,4499.843C5335.441,4499.843 5330.239,4532.615 5342.204,4545.619C5354.168,4558.624 5343.764,4573.709 5343.764,4573.709L4877.232,4361.421L4874.413,4350.494L4888.637,4341.146Z" style="fill:rgb(21,113,138);"/>
        </g>
        <g transform="matrix(0.94144,-0.008349,0.008349,0.94144,2730.22094,68.726741)">
            <g transform="matrix(1.12559,0,0,1.190252,-783.207601,-568.816176)">
                <ellipse cx="5972.004" cy="2497.826" rx="454.176" ry="437.661" style="fill:rgb(21,113,138);"/>
            </g>
            <g transform="matrix(1.12559,0,0,1.190252,-1786.946637,1886.031436)">
                <ellipse cx="5972.004" cy="2497.826" rx="454.176" ry="437.661" style="fill:rgb(21,113,138);"/>
            </g>
            <g transform="matrix(1.12559,0,0,1.190252,-783.207601,-568.816176)">
                <ellipse cx="5972.004" cy="2497.826" rx="454.176" ry="437.661" style="fill:rgb(21,113,138);"/>
            </g>
            <path d="M4888.637,4341.146C4888.637,4341.146 4909.081,4343.72 4935.082,4290.045C4962.219,4234.027 5531.181,2801.053 5531.181,2801.053L5537.317,2772.758L5535.613,2743.269L5528.113,2724.69C5679.671,2794.222 5863.348,2880.318 5980.796,2933.537C5980.796,2933.537 5956.808,2937.931 5950.999,2949.117C5948.25,2954.411 5943.24,2965.048 5943.24,2965.048L5930.113,3000.42L5343.244,4469.153L5335.441,4499.843C5335.441,4499.843 5330.239,4532.615 5342.204,4545.619C5354.168,4558.624 5343.764,4573.709 5343.764,4573.709L4877.232,4361.421L4874.413,4350.494L4888.637,4341.146Z" style="fill:rgb(21,113,138);"/>
        </g>
    </g>
    <defs>
        <linearGradient id="_Linear1" x1="0" y1="0" x2="1" y2="0" gradientUnits="userSpaceOnUse" gradientTransform="matrix(48.631025,0,0,49.028403,216.673583,283.937021)"><stop offset="0" style="stop-color:rgb(0,255,255);stop-opacity:1"/><stop offset="1" style="stop-color:rgb(75,191,175);stop-opacity:1"/></linearGradient>
        <radialGradient id="_Radial2" cx="0" cy="0" r="1" gradientUnits="userSpaceOnUse" gradientTransform="matrix(6865.72683,0,0,6001.996904,1967.136585,3600)"><stop offset="0" style="stop-color:rgb(32,255,255);stop-opacity:1"/><stop offset="0.41" style="stop-color:rgb(0,242,244);stop-opacity:1"/><stop offset="0.69" style="stop-color:rgb(6,207,215);stop-opacity:1"/><stop offset="1" style="stop-color:rgb(21,113,138);stop-opacity:1"/></radialGradient>
    </defs>
</svg>
