<?xml version="1.0" encoding="UTF-8" standalone="no"?>
<!DOCTYPE svg PUBLIC "-//W3C//DTD SVG 1.1//EN" "http://www.w3.org/Graphics/SVG/1.1/DTD/svg11.dtd">
<svg width="100%" height="100%" viewBox="0 0 10800 7200" version="1.1" xmlns="http://www.w3.org/2000/svg" xmlns:xlink="http://www.w3.org/1999/xlink" xml:space="preserve" xmlns:serif="http://www.serif.com/" style="fill-rule:evenodd;clip-rule:evenodd;stroke-linejoin:round;stroke-miterlimit:2;">
    <g>
        <g transform="matrix(14.22235,0,0,14.22235,-1919.016695,-442.488405)">
            <path d="M216.803,344.564C217.5,340.801 217.542,340.839 217.595,340.513C218.038,337.805 216.379,338.08 208.546,338.884C205.59,339.188 205.703,339.751 204.559,342.529C203.286,345.621 197.446,350.922 190.494,348.518C177.464,344.01 181.158,323.359 196.605,326.013C199.363,326.487 199.251,325.517 205.137,318.213C209.549,312.738 209.386,312.206 209.206,311.613C208.824,310.359 186.278,297.206 183.622,295.317C179.64,292.485 179.196,293.75 176.403,295.317C173.423,296.989 168.498,296.771 165.596,295.302C153.426,289.139 157.179,273.525 167.404,271.11C176.135,269.048 178.024,274.95 181.637,272.747C185.205,270.571 195.112,265.151 195.677,264.799C201.797,260.992 202.829,261.358 202.455,259.516C202.285,258.684 202.121,258.779 195.508,251.493C191.059,246.592 190.91,245.908 187.521,246.599C178.708,248.395 174.299,241.587 173.456,238.512C169.529,224.2 188.256,217.843 194.546,228.47C195.603,230.256 195.554,230.276 195.649,230.428C196.943,232.507 197.676,232.209 207.497,232.19C233.511,232.14 233.739,232.485 234.614,231.609C235.661,230.561 236.785,221.456 236.896,220.56C238.303,209.165 239.236,208.359 236.752,207.048C235.873,206.585 230.386,203.689 227.962,198.273C220.748,182.156 238.956,168.804 250.688,175.131C262.497,181.5 258.417,187.637 262.513,188.413C264.117,188.716 305.626,190.631 312.492,190.836C320.661,191.08 321.768,192.143 323.413,188.456C326.579,181.358 336.9,179.782 342.251,183.833C350.28,189.91 346.672,197.701 347.655,199.4C348.448,200.77 365.574,212.805 367.167,213.923C377.645,221.286 377.941,222.971 380.815,220.947C391.42,213.478 402.842,216.268 409.213,226.664C412.176,231.499 411.279,239.116 410.436,241.481C406.387,252.848 396.522,254.255 395.505,254.52C393.572,255.022 393.029,256.765 391.939,259.665C385.972,275.539 385.616,275.37 382.904,282.642C375.673,302.031 375.263,301.863 374.701,303.571C373.364,307.63 372.215,308.508 373.947,311.224C381.737,323.441 374.66,335.695 365.488,339.473C353.781,344.297 346.142,335.578 344.508,335.638C343.29,335.683 332.381,344.09 329.259,346.134C326.626,347.858 327.055,348.347 327.339,351.511C328.233,361.493 320.366,365.807 316.466,366.152C310.02,366.723 308.046,364.223 306.478,363.542C303.752,362.36 302.844,364.562 276.705,380.814C273.344,382.903 274.435,384.918 274.209,386.463C272.535,397.921 254.31,397.933 253.936,385.49C253.646,375.846 261.222,376.431 261.784,373.583C262.315,370.887 263.169,353.264 263.255,351.495C263.397,348.568 262.237,349.027 257.461,346.57C253.918,344.748 253.801,346.255 250.84,348.903C249.197,350.372 232.005,365.75 230.323,367.294C227.044,370.304 225.628,370.152 226.667,374.461C228.513,382.116 223.528,387.199 222.232,388.14C210.673,396.528 198.502,385.408 201.635,374.533C204.005,366.304 212.035,365.182 212.242,365.043C214.102,363.797 214.676,354.928 216.803,344.564ZM219.903,326.555C220.054,325.576 221.453,321.955 219.18,318.732C214.984,312.783 213.566,316.418 213.031,317.178C209.168,322.664 208.693,322.27 204.835,327.76C202.56,330.997 205.05,333.729 207.5,333.497C208.221,333.429 215.174,332.77 216.513,332.599C219.258,332.249 219.266,330.324 219.903,326.555ZM338.84,224.414C338.117,221.327 336.853,215.543 336.548,214.484C335.149,209.624 335.543,208.432 333.421,207.823C329.891,206.809 329.582,207.431 327.634,210.579C323.02,218.039 322.812,217.878 318.168,225.334C316.418,228.145 322.438,230.292 322.901,239.482C323.284,247.09 318.864,247.851 322.169,252.723C336.331,273.606 354.49,302.105 355.509,302.479C358.719,303.655 357.846,301.098 366.869,278.657C367.778,276.397 376.542,254.6 378.05,250.333C379.53,246.147 372.996,244.681 374.096,233.458C374.537,228.966 377.155,228.137 373.655,225.301C369.158,221.657 363.165,217.53 362.231,216.887C346.306,205.921 345.258,203.308 342.759,204.905C339.911,206.725 341.218,209.485 341.688,211.462C346.287,230.8 346.324,230.775 346.699,232.461C347.094,234.243 350.575,249.915 352.091,254.625C352.811,256.864 353.456,256.305 355.603,257.299C358.027,258.42 361.536,262.333 360.173,267.423C357.881,275.986 346.076,275.88 343.536,268.488C341.422,262.337 346.06,258.792 346.303,257.461C346.617,255.742 339.264,225.796 338.84,224.414ZM220.181,357.438C219.049,363.074 218.308,365.744 220.418,366.654C222.606,367.598 222.989,366.373 233.741,356.787C245.452,346.345 245.416,346.333 246.441,345.435C250.111,342.223 251.894,342.197 250.029,337.678C248.45,333.848 247.154,335.315 239.525,335.815C238.273,335.897 225.086,336.761 223.997,337.981C223.017,339.078 221.345,351.278 220.181,357.438ZM300.568,221.877C301.114,221.82 304.702,221.447 307.436,221.854C309.313,222.133 311.104,223.484 312.66,222.847C314.137,222.243 324.622,205.244 324.781,204.588C324.919,204.014 325.055,203.449 322.145,197.701C321.402,196.233 319.036,196.358 312.507,196.208C300.832,195.941 300.891,195.552 291.51,195.253C273.808,194.688 263.435,193.424 261.375,194.315C261.04,194.46 260.428,194.725 259.559,198.512C259.077,200.614 262.68,202.617 269.627,208.346C270.899,209.395 285.324,221.292 285.543,221.45C288.752,223.753 290.561,227.205 293.285,225.206C296.319,222.981 298.055,222.702 300.568,221.877ZM291.575,364.609C294.202,362.751 298.207,360.338 298.795,359.984C301.723,358.22 301.941,357.897 301.511,354.499C301.316,352.958 301.511,350.596 301.029,349.969C300.358,349.095 290.297,344.34 289.344,343.89C284.23,341.473 283.741,340.55 281.651,342.647C274.388,349.934 271.254,347.839 269.588,349.582C268.557,350.661 268.614,361.198 267.766,370.529C267.413,374.412 266.696,375.472 270.425,376.678C272.676,377.406 272.673,376.535 291.575,364.609ZM220.55,250.587C221.875,249.753 222.314,249.53 222.474,249.449C223.106,249.127 225.002,248.162 230.191,245.07C234.648,242.414 235.382,237.827 231.5,237.99C225.567,238.239 218.627,237.898 213.498,237.983C197.909,238.242 196.557,236.81 194.996,240.67C194.566,241.735 194.418,242.14 200.427,248.567C206.446,255.005 207.602,257.845 210.414,256.343C215.558,253.596 215.442,253.438 220.55,250.587ZM325.704,341.773C329.187,339.141 340.48,331.702 340.785,330.593C341.115,329.393 338.229,322.197 340.617,315.54C341.672,312.6 341.871,312.368 340.167,309.731C337.529,305.65 333.845,300.443 333.281,299.645C333.026,299.285 312.033,267.682 311.766,267.315C308.364,262.634 306.349,256.931 304.449,261.477C302.616,265.863 302.803,265.906 301.01,270.284C297.567,278.694 297.546,278.678 297.261,279.414C292.949,290.517 292.608,290.345 288.443,301.479C282.657,316.946 281.024,317.182 282.945,320.221C287.268,327.056 285.898,328.813 285.812,334.502C285.785,336.289 287.338,337.035 295.376,340.762C301.267,343.494 302.387,345.775 305.472,343.465C309.754,340.259 309.894,340.35 310.174,339.444C310.517,338.334 308.445,319.799 307.712,309.487C307.513,306.674 306.969,306.841 304.704,305.212C299.139,301.211 300.612,292.914 305.561,290.616C312.806,287.251 319.303,293.37 318.285,299.473C317.381,304.888 313.183,304.685 313.419,308.507C313.478,309.469 313.941,316.961 314.362,320.517C316.468,338.29 315.08,339.449 317.56,340.333C322.55,342.111 322.786,343.923 325.704,341.773ZM242.135,223.451C239.464,239.07 240.152,245.801 235.502,248.503C225.803,254.141 186.304,276.659 185.317,277.163C183.771,277.952 183.642,277.791 183.329,278.386C182.046,280.827 185.207,280.906 185.472,280.912C195.37,281.159 207.528,280.27 209.338,281.702C210.266,282.435 212.059,286.344 206.502,286.346C184.559,286.353 184.402,286.036 183.638,286.684C181.63,288.389 186.795,290.49 192.656,294.213C207.871,303.878 222.046,311.071 224.539,316.482C227.742,323.432 225.715,323.733 224.891,329.568C224.458,332.625 227.634,331.535 234.54,330.877C247.864,329.608 248.121,329.596 248.601,328.562C249.156,327.368 249.5,319.367 258.664,313.776C262.823,311.239 266.071,313.293 267.576,309.535C268.565,307.065 274.734,291.656 279.815,278.621C280.349,277.252 284.023,267.826 286.757,261.613C290.118,253.975 289.807,253.196 289.524,252.487C289.392,252.155 289.226,252.256 287.237,248.647C285.994,246.392 282.927,248.708 266.477,252.397C261.754,253.456 259.18,255.298 257.919,252.325C257.153,250.518 254.14,241.336 253.825,240.376C252.096,235.107 244.852,241 245.311,235.49C245.618,231.805 246.816,232.22 250.501,232.188C254.615,232.152 256.757,231.454 257.787,234.405C259.347,238.878 259.37,238.845 260.835,243.372C261.267,244.708 261.978,247.611 264.414,247.081C265.396,246.867 284.22,242.158 284.326,242.105C286.06,241.256 285.07,238.259 286.492,234.497C286.609,234.189 287.698,231.309 287.484,230.506C287.124,229.153 274.308,219.765 264.693,211.275C256.514,204.053 255.488,204.367 254.562,204.651C253.466,204.986 251.51,207.187 247.573,207.845C245.097,208.259 244.356,207.902 244.028,210.409C243.172,216.947 243.083,216.909 242.135,223.451Z" style="fill:url(#_Radial1);"/>
        </g>
        <g transform="matrix(14.22235,0,0,14.22235,-1916.642926,-438.251567)">
            <path d="M221.51,292.043C216.253,291.204 216.594,289.572 216.737,280.507C216.839,274.014 222.397,275.948 230.517,275.72C233.731,275.63 232.245,273.872 232.737,263.515C232.958,258.865 237.252,259.371 244.5,259.51C250.884,259.632 248.885,265.455 249.133,273.528C249.246,277.204 251.226,275.374 260.496,275.678C265.176,275.831 265.557,277.941 265.207,287.496C264.935,294.908 253.93,291.18 250.398,292.159C248.622,292.651 249.212,296.329 249.137,303.502C249.076,309.35 244.651,308.414 238.501,308.372C231.356,308.322 232.762,304.474 232.701,294.5C232.682,291.417 230.704,292.079 221.51,292.043Z" style="fill:url(#_Linear2);"/>
        </g>
    </g>
    <g transform="matrix(1.041622,0,0,1.041622,-306.484329,-291.392019)">
        <g transform="matrix(13.654045,0,0,13.654045,-1590.870846,-257.032191)">
            <path d="M693.078,265.494C692.848,267.978 692.587,276.403 686.114,284.177C682.113,288.981 675.535,289.947 677.2,292.636C678.3,294.414 678.391,294.334 691.863,314.275C692.486,315.197 693.819,317.048 693.991,317.287C695.114,318.846 694.41,319.427 692.496,319.41C673.502,319.25 673.125,319.776 671.789,318.258C670.216,316.469 657.615,296.466 656.382,295.691C655.438,295.098 654.263,295.165 642.495,295.202C639.525,295.211 638.276,294.502 638.202,297.472C638.03,304.377 638.635,317.782 637.76,318.722C637.325,319.189 637.245,319.443 620.501,319.379C616.983,319.366 617.525,317.995 617.509,314.5C617.48,308.182 617.156,237.447 617.594,235.524C618.015,233.672 618.908,234.196 646.5,234.179C657.959,234.172 678.311,232.277 688.743,248.357C692.578,254.268 693.015,264.081 693.078,265.494ZM638.194,275.503C638.263,276.413 637.674,278.53 640.492,278.613C656.135,279.074 659.9,278.035 661.524,277.586C675.448,273.741 674.12,259.286 667.242,253.8C665.462,252.38 664.843,250.108 640.51,250.681C637.781,250.745 638.205,251.764 638.193,254.494C638.18,257.593 638.193,273.822 638.194,275.503Z" style="fill:rgb(17,113,139);"/>
        </g>
        <g transform="matrix(13.654045,0,0,13.654045,-1590.870846,-257.032191)">
            <path d="M497.054,283.372C496.777,279.873 496.746,279.482 496.85,239.503C496.85,239.189 496.859,235.725 496.909,235.579C497.454,233.991 497.797,234.177 499.496,234.164C515.205,234.046 515.387,233.724 516.434,234.585C517.321,235.314 517.075,235.603 517.121,297.501C517.137,318.353 517.149,318.654 516.281,319.102C515.423,319.545 501.084,319.402 500.568,319.229C498.948,318.689 499.177,318.308 483.888,300.166C482.717,298.776 471.079,284.466 464.359,276.614C462.686,274.659 458.997,269.578 458.504,269.486C456.988,269.203 457.256,269.957 457.313,271.475C457.444,274.995 457.546,277.705 457.512,315.5C457.511,315.778 457.509,318.338 456.87,318.918C456.201,319.525 455.829,319.413 442.5,319.39C442.185,319.39 438.782,319.384 438.565,319.285C436.942,318.544 437.335,317.843 437.296,304.5C437.28,298.978 437.099,236.567 437.396,235.468C437.713,234.298 438.079,233.915 452.499,234.177C456.689,234.253 457.515,237.853 470.757,253.277C472.149,254.898 491.537,278.441 493.341,280.632C495.847,283.675 495.431,284.056 495.767,284.068C495.884,284.072 495.861,284.017 497.054,283.372Z" style="fill:rgb(17,113,139);"/>
        </g>
        <g transform="matrix(13.654045,0,0,13.654045,-1590.870846,-257.032191)">
            <path d="M828.5,302.621C864.627,302.654 864.66,302.631 865.178,302.962C865.871,303.404 865.872,307.145 865.872,307.513C865.875,318.366 865.972,318.59 865.203,319.066C864.695,319.381 864.628,319.334 803.499,319.405C799.612,319.41 797.276,320.207 797.277,316.495C797.289,296.164 797.302,275.833 797.315,255.502C797.321,235.386 797.078,234.834 798.43,234.345C798.848,234.194 798.862,234.189 846.497,234.169C862.883,234.162 863.512,233.861 864.158,235.582C864.231,235.777 864.238,239.184 864.239,239.497C864.257,247.888 864.756,250.203 862.507,250.549C861.813,250.656 829.744,250.642 825.497,250.614C820.11,250.579 817.878,249.596 817.865,253.497C817.822,265.642 817.74,265.642 818.032,266.653C818.614,268.668 821.852,267.842 828.501,267.95C851.011,268.317 857.19,267.273 858.237,268.695C858.985,269.71 858.704,282.81 858.344,283.409C857.517,284.787 856.995,284.109 820.496,284.238C818.971,284.244 817.915,284.428 817.871,286.507C817.578,300.292 817.694,300.589 818.137,301.722C818.607,302.925 820.443,302.66 828.5,302.621Z" style="fill:rgb(17,113,139);"/>
        </g>
        <g transform="matrix(13.654045,0,0,13.654045,-1590.870846,-257.032191)">
            <path d="M573.5,284.264C557.119,284.282 556.567,283.958 556.097,285.307C555.668,286.538 555.913,301.375 555.922,301.4C556.544,303.042 557.185,302.597 574.5,302.62C602.269,302.658 602.354,302.634 602.861,303.065C603.707,303.786 603.495,303.992 603.548,316.5C603.562,320.07 602.094,319.378 598.499,319.393C593.544,319.414 537.964,319.651 536.551,319.32C534.674,318.881 535.343,317.978 535.254,289.502C535.252,288.592 535.21,237.468 535.244,236.49C535.345,233.534 537.142,234.178 547.497,234.171C595.38,234.139 595.367,233.882 599.518,234.187C600.375,234.25 601.697,234.336 601.778,236.477C601.817,237.52 602.199,247.722 601.574,249.529C601.134,250.8 600.628,250.544 583.501,250.639C557.475,250.784 556.758,249.906 555.985,251.644C555.534,252.656 555.804,252.714 555.869,265.495C555.882,268.115 556.841,267.964 561.499,268.03C563.644,268.061 590.016,268.018 592.496,268.014C594.595,268.011 596.512,267.524 596.594,270.495C596.956,283.571 596.469,283.892 595.404,284.159C594.641,284.35 589.985,284.234 573.5,284.264Z" style="fill:rgb(17,113,139);"/>
        </g>
        <g transform="matrix(13.654045,0,0,13.654045,-1590.870846,-257.032191)">
            <path d="M742.795,293.256C743.173,293.27 743.115,293.08 743.52,293.095C744.262,293.122 744.215,293.34 744.269,293.309C744.51,293.173 744.452,292.787 744.535,292.523C744.789,291.707 744.813,291.735 749.147,281.356C750.378,278.41 763.204,247.697 764.703,244.6C768.56,236.634 768.056,234.231 771.497,234.174C788.887,233.89 789.647,234.035 789.674,235.492C789.685,236.109 780.294,257.694 778.944,260.703C773.886,271.979 774.277,272.118 769.284,283.406C758.619,307.52 758.867,307.607 757.935,309.7C755.031,316.226 754.507,318.565 753.291,319.096C751.998,319.662 733.869,319.322 733.581,319.21C732.663,318.855 732.184,318.67 727.69,308.417C713.286,275.547 713.543,275.47 712.173,272.67C710.72,269.698 704.13,254.143 703.445,252.525C696.313,235.691 695.908,235.454 696.624,234.613C697.003,234.167 701.106,234.186 701.498,234.188C716.626,234.256 717.626,233.366 718.918,236.338C721.062,241.273 720.836,241.338 722.97,246.265C727.068,255.723 727.17,255.668 727.519,256.493C741.832,290.239 741.853,290.213 742.795,293.256Z" style="fill:rgb(17,113,139);"/>
        </g>
    </g>
    <g transform="matrix(1.041622,0,0,1.041622,-306.484329,-291.392019)">
        <g transform="matrix(13.654045,0,0,13.654045,-1590.870846,-257.032191)">
            <path d="M826.675,352.826C824.99,354.747 820.564,366.446 817.5,366.165C815.146,365.95 814.264,363.465 811.234,358.67C811.017,358.326 809.694,356.234 808.689,354.268C808.574,354.044 808.699,353.56 808.448,353.554C806.683,353.51 806.932,355.311 806.958,355.505C807.079,356.376 807.327,358.178 807.206,366.49C807.165,369.287 806.263,369.131 803.496,369.065C799.67,368.975 800.713,367.306 800.719,363.5C800.754,341.116 800.632,340.808 801.449,340.42C802.471,339.934 805.813,340.073 806.476,340.541C807.272,341.104 807.11,341.259 813.22,350.7C815.898,354.839 816.985,359.456 819.398,354.45C820.132,352.928 827.318,341.268 827.788,340.813C828.147,340.465 833.871,338.41 833.94,342.496C833.974,344.505 834.336,365.927 833.847,367.615C833.274,369.596 828.05,369.711 827.543,367.489C826.957,364.919 827.62,356.437 827.695,355.479C827.883,353.072 827.048,353.382 826.675,352.826Z" style="fill:rgb(73,190,174);"/>
        </g>
        <g transform="matrix(13.654045,0,0,13.654045,-1590.870846,-257.032191)">
            <path d="M517.502,340.079C518.094,340.117 520.824,339.521 522.029,341.722C522.81,343.15 531.375,361.89 532.179,363.648C533.349,366.208 534.806,369.103 532.471,369.12C528.483,369.15 527.695,369.834 525.879,366.303C525.487,365.54 524.944,363.231 522.52,363.144C511.983,362.762 511.554,363.238 510.933,363.929C509.168,365.892 510.593,368.842 505.502,369.033C503.126,369.122 502.008,369.865 502.033,367.489C502.036,367.236 505.396,359.486 506.825,356.653C506.827,356.65 509.801,349.489 512.243,344.383C512.368,344.121 513.562,341.273 513.924,340.848C514.75,339.877 517.484,340.079 517.502,340.079ZM515.078,353.352L513.849,356.481C513.879,356.639 514.056,357.575 515.478,357.643C519.771,357.848 522.031,357.831 521.392,355.528C521.247,355.008 521.072,355.085 518.853,349.276C518.476,348.29 518.685,347.892 517.593,347.935C516.349,347.985 516.826,348.626 515.078,353.352Z" style="fill:rgb(72,188,172);"/>
        </g>
        <g transform="matrix(13.654045,0,0,13.654045,-1590.870846,-257.032191)">
            <path d="M440.504,340.127C443,340.224 443.823,339.957 443.925,342.474C444.133,347.641 443.321,351.129 445.538,351.241C446.664,351.299 453.767,351.207 454.483,351.198C456.676,351.17 456.851,350.701 456.862,348.522C456.891,342.856 456.031,340.163 459.488,340.107C459.793,340.102 462.698,340.056 463.244,340.718C463.686,341.254 463.73,341.348 463.689,365.503C463.684,368.843 462.847,368.963 459.5,369.06C458.424,369.092 456.964,369.039 456.874,366.488C456.6,358.737 457.562,357.845 455.539,357.36C455.105,357.256 445.721,357.285 445.465,357.337C442.078,358.02 445.645,367.932 442.657,368.892C442.153,369.054 438.523,369.411 437.563,368.443C436.968,367.842 437.099,367.695 437.099,343.508C437.099,343.273 437.099,341.108 437.606,340.61C438.012,340.211 440.27,340.135 440.504,340.127Z" style="fill:rgb(73,191,174);"/>
        </g>
        <g transform="matrix(13.654045,0,0,13.654045,-1590.870846,-257.032191)">
            <path d="M623.105,363.501C623.102,363.814 623.059,367.418 623.059,367.418C622.953,367.788 622.465,369.5 618.528,369.028C616.839,368.825 616.321,368.153 616.287,366.52C616.196,362.068 617.045,357.631 614.535,357.255C614.529,357.254 604.944,357.182 604.445,357.321C601.481,358.147 605.159,368.169 601.614,368.976C596.976,370.033 596.542,367.93 596.456,367.509C596.411,367.293 596.445,341.852 596.52,341.505C596.97,339.435 602.386,339.677 602.969,341.266C603.499,342.712 602.915,349.793 603.494,350.504C604.223,351.401 604.355,351.238 605.507,351.247C615.003,351.326 615.113,351.279 615.683,350.696C617.192,349.151 615.038,340.996 617.392,340.235C617.86,340.084 621.814,339.916 622.494,340.507C623.315,341.221 623.07,342.261 623.105,363.501Z" style="fill:rgb(72,189,172);"/>
        </g>
        <g transform="matrix(13.654045,0,0,13.654045,-1590.870846,-257.032191)">
            <path d="M477.501,340.109C480.503,340.12 483.506,340.131 486.509,340.142C492.853,340.167 495.447,339.366 495.599,342.495C495.781,346.266 494.291,345.795 490.497,345.792C483.52,345.788 480.89,345.293 480.542,347.509C479.911,351.533 481.436,351.516 485.5,351.497C488.758,351.483 493.139,351.092 493.697,352.395C493.805,352.647 494.61,356.284 492.68,356.933C490.863,357.545 481.85,356.553 480.889,357.791C480.496,358.298 479.478,363.124 482.528,363.242C494.208,363.696 496.062,362.059 496.262,365.52C496.506,369.734 494.735,369.08 490.505,369.076C487.501,369.076 484.497,369.076 481.493,369.076C476.544,369.09 473.733,369.874 473.708,366.495C473.693,364.5 473.531,342.264 473.775,341.556C474.515,339.413 475.262,340.332 477.501,340.109Z" style="fill:rgb(72,190,175);"/>
        </g>
        <g transform="matrix(13.654045,0,0,13.654045,-1590.870846,-257.032191)">
            <path d="M788.502,340.108C789.666,340.195 792.002,339.465 791.705,343.515C791.654,344.223 791.576,345.691 789.518,345.768C777.788,346.204 776.662,345.154 776.285,347.473C775.718,350.966 777.194,351.366 777.516,351.453C779.514,351.994 788.49,350.704 789.349,352.565C789.61,353.131 789.651,355.594 789.2,356.306C787.867,358.409 777.085,355.638 776.33,358.447C775.027,363.289 778.079,363.34 778.508,363.347C790.773,363.553 791.333,362.919 791.881,364.293C792.244,365.205 792.322,367.757 791.538,368.542C790.6,369.484 771.237,369.126 770.365,368.741C769.106,368.185 769.539,366.164 769.486,348.5C769.476,345.192 769.107,340.858 770.421,340.34C771.052,340.091 774.761,340.098 788.502,340.108Z" style="fill:rgb(73,191,174);"/>
        </g>
        <g transform="matrix(13.654045,0,0,13.654045,-1590.870846,-257.032191)">
            <path d="M852.539,339.877C853.543,339.858 865.236,339.636 864.556,343.509C863.661,348.607 860.109,346.178 859.373,345.957C853.156,344.088 848.502,346.094 850.396,349.574C851.978,352.48 865.538,351.288 866.345,359.514C867.482,371.117 851.419,370.355 846.502,368.494C844.275,367.651 841.459,366.902 842.961,363.715C843.978,361.557 844.198,360.728 846.312,361.866C851.936,364.896 858.831,364.209 859.275,361.472C859.844,357.966 854.791,358.568 847.449,355.613C841.343,353.155 842.129,346.944 844.056,344.215C846.693,340.48 849.905,340.281 852.539,339.877Z" style="fill:rgb(71,188,172);"/>
        </g>
        <g transform="matrix(13.654045,0,0,13.654045,-1590.870846,-257.032191)">
            <path d="M659.524,363.776C659.897,363.715 663.369,363.146 663.69,361.55C664.427,357.886 657.851,357.83 654.428,356.727C641.563,352.585 646.378,336.608 664.544,340.275C670.693,341.516 669.099,343.997 668.888,344.63C667.801,347.899 666.699,346.866 663.365,345.934C656.268,343.95 652.638,347.439 655.078,349.912C657.344,352.209 672.383,352.074 670.918,361.557C669.141,373.066 650.1,369.579 647.494,366.505C646.47,365.297 648.14,362.032 648.652,361.699C650.893,360.236 650.807,363.81 659.524,363.776Z" style="fill:rgb(71,188,171);"/>
        </g>
        <g transform="matrix(13.654045,0,0,13.654045,-1590.870846,-257.032191)">
            <path d="M717.554,339.94C718.22,339.902 724.992,339.067 729.495,341.508C731.771,342.741 729.455,346.569 728.598,346.776C727.36,347.076 727.395,346.711 724.428,345.809C719.027,344.167 715.474,346.576 715.889,348.482C716.958,353.385 731.425,350.694 732.167,359.525C733.316,373.198 710.826,369.892 708.705,366.357C708.07,365.3 709.06,360.269 712.289,361.938C718.614,365.208 724.647,363.836 725.049,361.453C725.677,357.737 719.107,358.484 713.401,355.679C707.75,352.902 708.105,347.438 709.776,344.665C712.443,340.239 717.447,339.966 717.554,339.94Z" style="fill:rgb(71,186,170);"/>
        </g>
        <g transform="matrix(13.654045,0,0,13.654045,-1590.870846,-257.032191)">
            <path d="M679.504,340.115C682.456,340.357 682.505,340.679 683.997,343.212C684.376,343.855 688.362,350.621 688.832,351.179C689.875,352.417 691.103,350.459 691.211,350.287C691.494,349.836 691.441,349.816 694.651,344.588C696.897,340.931 697.22,340.211 699.492,340.147C699.802,340.138 702.967,340.05 703.336,340.621C703.752,341.267 703.712,341.464 699.02,349.191C696.168,353.887 693.118,357.998 693.034,360.451C692.919,363.824 693.451,368.521 691.633,368.896C686.533,369.949 686.189,368.066 686.108,367.62C685.272,363.031 687.783,361.159 684.186,355.706C683.814,355.142 676.515,343.15 676.189,342.678C673.836,339.274 678.874,340.123 679.504,340.115Z" style="fill:rgb(71,187,172);"/>
        </g>
        <g transform="matrix(13.654045,0,0,13.654045,-1590.870846,-257.032191)">
            <path d="M585.504,340.102C589.078,340.198 589.654,340.899 589.199,344.453C588.762,347.868 580.984,344.302 580.207,347.424C579.997,348.267 580.209,367.189 580.137,367.444C579.553,369.508 576.84,369.099 575.526,369.063C572.609,368.984 573.158,366.971 573.134,356.501C573.115,348.001 573.882,346.097 570.52,346.035C565.736,345.948 563.814,346.897 563.93,342.511C563.976,340.771 564.591,340.168 566.489,340.145C567.089,340.137 583.983,340.105 585.504,340.102Z" style="fill:rgb(75,192,173);"/>
        </g>
        <g transform="matrix(13.654045,0,0,13.654045,-1590.870846,-257.032191)">
            <path d="M750.5,340.137C756.353,340.154 761.021,340.073 761.516,340.473C761.769,340.677 762.712,341.438 762.272,344.466C761.84,347.445 754.87,345.282 753.573,346.577C752.587,347.562 753.288,361.839 753.089,366.482C752.901,370.877 746.853,368.613 746.648,368.374C745.709,367.28 746.362,352.553 746.18,348.509C746.082,346.323 745.684,346.129 743.509,346.106C738.82,346.057 736.606,347.222 736.893,342.518C737.072,339.599 738.443,340.184 750.5,340.137Z" style="fill:rgb(75,191,175);"/>
        </g>
        <g transform="matrix(13.654045,0,0,13.654045,-1590.870846,-257.032191)">
            <path d="M545.515,340.108C546.274,340.332 547.713,339.707 547.85,342.485C548.059,346.7 547.357,361.607 548.364,362.647C549.449,363.766 560.528,362.651 561.517,363.476C562.379,364.195 563.174,368.741 560.567,368.964C557.353,369.239 544.874,369.102 543.509,369.087C542.635,369.078 540.956,369.18 540.863,366.499C540.524,356.697 540.834,344.437 540.883,342.519C540.961,339.413 543.843,340.144 545.515,340.108Z" style="fill:rgb(75,192,176);"/>
        </g>
    </g>
    <defs>
        <radialGradient id="_Radial1" cx="0" cy="0" r="1" gradientUnits="userSpaceOnUse" gradientTransform="matrix(253.279941,0,0,221.416532,157.974519,284.234921)"><stop offset="0" style="stop-color:rgb(32,255,255);stop-opacity:1"/><stop offset="0.41" style="stop-color:rgb(0,242,244);stop-opacity:1"/><stop offset="0.69" style="stop-color:rgb(6,207,215);stop-opacity:1"/><stop offset="1" style="stop-color:rgb(21,113,138);stop-opacity:1"/></radialGradient>
        <linearGradient id="_Linear2" x1="0" y1="0" x2="1" y2="0" gradientUnits="userSpaceOnUse" gradientTransform="matrix(48.631025,0,0,49.028403,216.673583,283.937021)"><stop offset="0" style="stop-color:rgb(0,255,255);stop-opacity:1"/><stop offset="1" style="stop-color:rgb(75,191,175);stop-opacity:1"/></linearGradient>
    </defs>
</svg>
